nColumns=19
nRows=88
DataType=double
version=3
OpenSimVersion=4.1
endheader
time	ground_force_1_vx	ground_force_1_vy	ground_force_1_vz	ground_force_1_px	ground_force_1_py	ground_force_1_pz	ground_force_1_mx	ground_force_1_my	ground_force_1_mz	ground_force_2_vx	ground_force_2_vy	ground_force_2_vz	ground_force_2_px	ground_force_2_py	ground_force_2_pz	ground_force_2_mx	ground_force_2_my	ground_force_2_mz
0.25	0	0	0	-0.000834702	0	0.000126697	0	0	0	0	0	0	-0.000834702	0	0.000126697	0	0	0
0.258333	-1.71436	19.1145	-5.12855	1.12104	0	-0.224776	0	-1.97365	0	0	0	0	-0.000834702	0	0.000126697	0	0	0
0.266667	-10.9113	54.0892	-6.05416	1.13198	0	-0.289044	-0	4.90715	-0	0	0	0	-0.000834702	0	0.000126697	0	0	0
0.275	-24.3968	149.14	-4.82119	1.15679	0	-0.317048	-0	14.341	-0	0	0	0	-0.000834702	0	0.000126697	0	0	0
0.283333	-37.9528	350.548	1.03017	1.16867	0	-0.328226	-0	20.1868	-0	0	0	0	-0.000834702	0	0.000126697	0	0	0
0.291667	-51.5148	665.751	17.5605	1.16642	0	-0.331496	-0	13.6547	-0	0	0	0	-0.000834702	0	0.000126697	0	0	0
0.3	-78.7378	1002.95	46.5457	1.1565	0	-0.331389	0	-6.22227	0	0	0	0	-0.000834702	0	0.000126697	0	0	0
0.308333	-133.307	1226.02	76.6554	1.14408	0	-0.330406	0	-26.1605	0	0	0	0	-0.000834702	0	0.000126697	0	0	0
0.316667	-201.549	1308.55	88.979	1.12967	0	-0.330612	0	-28.3501	0	0	0	0	-0.000834702	0	0.000126697	0	0	0
0.325	-248.052	1351.2	76.8162	1.10955	0	-0.33287	0	-9.47704	0	0	0	0	-0.000834702	0	0.000126697	0	0	0
0.333333	-249.004	1443.34	55.7232	1.08215	0	-0.334692	-0	13.537	-0	0	0	0	-0.000834702	0	0.000126697	0	0	0
0.341667	-208.887	1588.52	46.7721	1.05159	0	-0.333127	-0	20.9432	-0	0	0	0	-0.000834702	0	0.000126697	0	0	0
0.35	-152.792	1732.98	52.4751	1.02243	0	-0.329664	-0	11.2667	-0	0	0	0	-0.000834702	0	0.000126697	0	0	0
0.358333	-97.1783	1823.18	57.1431	0.995105	0	-0.327524	-0	0.380857	-0	0	0	0	-0.000834702	0	0.000126697	0	0	0
0.366667	-44.7269	1843.24	49.9056	0.968309	0	-0.32758	-0	0.829091	-0	0	0	0	-0.000834702	0	0.000126697	0	0	0
0.375	0.833645	1810.26	38.0985	0.94194	0	-0.328026	-0	8.5478	-0	0	0	0	-0.000834702	0	0.000126697	0	0	0
0.383333	36.0171	1746.89	34.7577	0.916605	0	-0.326658	-0	12.1154	-0	0	0	0	-0.000834702	0	0.000126697	0	0	0
0.391667	65.203	1657.79	40.6711	0.892642	0	-0.323815	-0	8.86688	-0	0	0	0	-0.000834702	0	0.000126697	0	0	0
0.4	94.7887	1537.35	46.1902	0.869221	0	-0.322136	-0	5.66533	-0	0	0	0	-0.000834702	0	0.000126697	0	0	0
0.408333	124.259	1386.84	47.2145	0.845453	0	-0.323023	-0	6.28783	-0	0	0	0	-0.000834702	0	0.000126697	0	0	0
0.416667	148.957	1216.29	50.1787	0.821424	0	-0.324697	-0	5.67317	-0	0	0	0	-0.000834702	0	0.000126697	0	0	0
0.425	166.811	1033.43	59.6983	0.796463	0	-0.324689	0	-1.1495	0	0	0	0	-0.000834702	0	0.000126697	0	0	0
0.433333	180.48	835.434	68.7986	0.766752	0	-0.323247	0	-9.91927	0	0	0	0	-0.000834702	0	0.000126697	0	0	0
0.441667	187.313	625.691	66.4536	0.727955	0	-0.323014	0	-11.7219	0	0	0	0	-0.000834702	0	0.000126697	0	0	0
0.45	175.13	429.33	51.4984	0.684311	0	-0.325708	0	-4.71119	0	0	0	0	-0.000834702	0	0.000126697	0	0	0
0.458333	140.147	273.488	33.8512	0.653206	0	-0.328442	-0	3.49163	-0	0	0	0	-0.000834702	0	0.000126697	0	0	0
0.466667	95.2284	167.3	22.3858	0.658478	0	-0.320342	-0	5.55364	-0	0	0	0	-0.000834702	0	0.000126697	0	0	0
0.475	55.9229	100.294	16.2724	0.700609	0	-0.29312	-0	2.68051	-0	0	0	0	-0.000834702	0	0.000126697	0	0	0
0.483333	30.022	55.8234	9.90886	0.732531	0	-0.258139	-0	1.00805	-0	0	0	0	-0.000834702	0	0.000126697	0	0	0
0.491667	14.0136	25.8112	2.43333	0.717246	0	-0.228487	-0	2.54802	-0	0	0	0	-0.000834702	0	0.000126697	0	0	0
0.5	3.78084	10.3498	-1.62451	-0.000834702	0	0.000126697	0	0	0	0	0	0	-0.000834702	0	0.000126697	0	0	0
0.508333	0	0	0	-0.000834702	0	0.000126697	0	0	0	0	0	0	-0.000834702	0	0.000126697	0	0	0
0.516667	0	0	0	-0.000834702	0	0.000126697	0	0	0	-0.905588	10.0889	3.46455	-0.000834702	0	0.000126697	0	0	0
0.525	0	0	0	-0.000834702	0	0.000126697	0	0	0	0	0	0	-0.000834702	0	0.000126697	0	0	0
0.533333	0	0	0	-0.000834702	0	0.000126697	0	0	0	0	0	0	-0.000834702	0	0.000126697	0	0	0
0.541667	0	0	0	-0.000834702	0	0.000126697	0	0	0	0	0	0	-0.000834702	0	0.000126697	0	0	0
0.55	0	0	0	-0.000834702	0	0.000126697	0	0	0	0	0	0	-0.000834702	0	0.000126697	0	0	0
0.558333	0	0	0	-0.000834702	0	0.000126697	0	0	0	-1.62808	11.8205	3.53242	-0.000834702	0	0.000126697	0	0	0
0.566667	0	0	0	-0.000834702	0	0.000126697	0	0	0	0	0	0	-0.000834702	0	0.000126697	0	0	0
0.575	0	0	0	-0.000834702	0	0.000126697	0	0	0	0	0	0	-0.000834702	0	0.000126697	0	0	0
0.583333	0	0	0	-0.000834702	0	0.000126697	0	0	0	-1.23485	10.2672	-3.76632	-0.000834702	0	0.000126697	0	0	0
0.591667	0	0	0	-0.000834702	0	0.000126697	0	0	0	-4.57431	32.1755	-5.52986	1.19001	0	-0.25402	0	-0.067966	0
0.6	0	0	0	-0.000834702	0	0.000126697	0	0	0	-14.2764	93.6917	-8.55032	1.17354	0	-0.296779	0	-0.458176	0
0.608333	0	0	0	-0.000834702	0	0.000126697	0	0	0	-32.8736	235.884	-13.7407	1.17562	0	-0.31364	0	-2.56538	0
0.616667	0	0	0	-0.000834702	0	0.000126697	0	0	0	-61.3691	496.165	-18.6395	1.1762	0	-0.315756	0	-7.82702	0
0.625	0	0	0	-0.000834702	0	0.000126697	0	0	0	-102.07	838.3	-21.794	1.17259	0	-0.312026	0	-13.8945	0
0.633333	0	0	0	-0.000834702	0	0.000126697	0	0	0	-153.302	1125.89	-27.8276	1.16509	0	-0.307533	0	-13.098	0
0.641667	0	0	0	-0.000834702	0	0.000126697	0	0	0	-203.636	1254.3	-43.3911	1.1539	0	-0.305226	0	-0.171267	0
0.65	0	0	0	-0.000834702	0	0.000126697	0	0	0	-240.02	1274.32	-64.8892	1.13779	0	-0.306645	-0	17.634	-0
0.658333	0	0	0	-0.000834702	0	0.000126697	0	0	0	-259.244	1308.32	-75.2901	1.11517	0	-0.309612	-0	23.3016	-0
0.666667	0	0	0	-0.000834702	0	0.000126697	0	0	0	-258.907	1412.91	-61.4175	1.0871	0	-0.309874	-0	7.8872	-0
0.675	0	0	0	-0.000834702	0	0.000126697	0	0	0	-231.498	1558.62	-32.6983	1.05655	0	-0.307845	0	-16.5183	0
0.683333	0	0	0	-0.000834702	0	0.000126697	0	0	0	-179.644	1686.88	-13.338	1.02669	0	-0.307353	0	-27.5889	0
0.691667	0	0	0	-0.000834702	0	0.000126697	0	0	0	-119.332	1763.73	-14.688	0.998892	0	-0.309728	0	-17.1078	0
0.7	0	0	0	-0.000834702	0	0.000126697	0	0	0	-66.1703	1792.1	-24.0521	0.972818	0	-0.312608	-0	0.727757	-0
0.708333	0	0	0	-0.000834702	0	0.000126697	0	0	0	-25.4448	1790.13	-24.0273	0.947632	0	-0.313371	-0	7.16486	-0
0.716667	0	0	0	-0.000834702	0	0.000126697	0	0	0	9.40156	1762.72	-14.5908	0.922521	0	-0.312602	0	-0.301146	0
0.725	0	0	0	-0.000834702	0	0.000126697	0	0	0	45.6986	1698.93	-9.32238	0.897316	0	-0.312866	0	-9.232	0
0.733333	0	0	0	-0.000834702	0	0.000126697	0	0	0	81.8834	1595.62	-15.1551	0.872114	0	-0.314762	0	-10.2291	0
0.741667	0	0	0	-0.000834702	0	0.000126697	0	0	0	113.049	1464.43	-25.1406	0.847259	0	-0.316295	0	-6.42316	0
0.75	0	0	0	-0.000834702	0	0.000126697	0	0	0	138.037	1315.29	-30.9563	0.823279	0	-0.315445	0	-4.79885	0
0.758333	0	0	0	-0.000834702	0	0.000126697	0	0	0	158.225	1143.64	-34.0787	0.7998	0	-0.312767	0	-4.96899	0
0.766667	0	0	0	-0.000834702	0	0.000126697	0	0	0	173.244	939.335	-40.4313	0.77367	0	-0.310921	0	-1.29752	0
0.775	0	0	0	-0.000834702	0	0.000126697	0	0	0	180.5	711.452	-48.8931	0.739319	0	-0.311575	-0	6.70597	-0
0.783333	0	0	0	-0.000834702	0	0.000126697	0	0	0	171.926	495.062	-50.9749	0.697229	0	-0.313048	-0	11.7054	-0
0.791667	0	0	0	-0.000834702	0	0.000126697	0	0	0	142.541	321.596	-41.338	0.659293	0	-0.311313	-0	7.39334	-0
0.8	0	0	0	-0.000834702	0	0.000126697	0	0	0	100.315	196.189	-24.7076	0.64236	0	-0.303843	0	-3.26389	0
0.808333	0	0	0	-0.000834702	0	0.000126697	0	0	0	59.1418	109.479	-10.9114	0.664773	0	-0.291643	0	-11.0726	0
0.816667	0	0	0	-0.000834702	0	0.000126697	0	0	0	29.4977	52.3931	-4.89183	0.730651	0	-0.278545	0	-10.6664	0
0.825	0	0	0	-0.000834702	0	0.000126697	0	0	0	13.1766	21.223	-3.5973	0.828151	0	-0.255926	0	-5.17235	0
0.833333	0	0	0	-0.000834702	0	0.000126697	0	0	0	5.543	11.433	-1.90004	-0.000834702	0	0.000126697	0	0	0
0.841667	0	0	0	-0.000834702	0	0.000126697	0	0	0	1.34932	11.5344	1.1043	-0.000834702	0	0.000126697	0	0	0
0.85	0	0	0	-0.000834702	0	0.000126697	0	0	0	-2.15846	10.2651	2.74768	-0.000834702	0	0.000126697	0	0	0
0.858333	0	0	0	-0.000834702	0	0.000126697	0	0	0	0	0	0	-0.000834702	0	0.000126697	0	0	0
0.866667	0	0	0	-0.000834702	0	0.000126697	0	0	0	0	0	0	-0.000834702	0	0.000126697	0	0	0
0.875	0	0	0	-0.000834702	0	0.000126697	0	0	0	0	0	0	-0.000834702	0	0.000126697	0	0	0
0.883333	0	0	0	-0.000834702	0	0.000126697	0	0	0	0	0	0	-0.000834702	0	0.000126697	0	0	0
0.891667	0.209006	10.0994	2.4375	-0.000834702	0	0.000126697	0	0	0	0	0	0	-0.000834702	0	0.000126697	0	0	0
0.9	0	0	0	-0.000834702	0	0.000126697	0	0	0	0	0	0	-0.000834702	0	0.000126697	0	0	0
0.908333	0	0	0	-0.000834702	0	0.000126697	0	0	0	0	0	0	-0.000834702	0	0.000126697	0	0	0
0.916667	0	0	0	-0.000834702	0	0.000126697	0	0	0	0	0	0	-0.000834702	0	0.000126697	0	0	0
0.925	-0.185387	12.4228	0.0170257	-0.000834702	0	0.000126697	0	0	0	0	0	0	-0.000834702	0	0.000126697	0	0	0
0.933333	1.41345	29.0259	-1.35591	1.12215	0	-0.227081	0	-1.18873	0	0	0	0	-0.000834702	0	0.000126697	0	0	0
0.941667	3.32983	78.9575	-3.56405	1.12947	0	-0.282924	-0	5.62778	-0	0	0	0	-0.000834702	0	0.000126697	0	0	0
0.95	5.22642	199.209	-2.94	1.11638	0	-0.299931	-0	13.5061	-0	0	0	0	-0.000834702	0	0.000126697	0	0	0
0.958333	2.41848	420.594	4.82863	1.10338	0	-0.305467	-0	14.8493	-0	0	0	0	-0.000834702	0	0.000126697	0	0	0
0.966667	-16.5782	724.665	21.6745	1.09372	0	-0.307624	-0	4.90498	-0	0	0	0	-0.000834702	0	0.000126697	0	0	0
0.975	-61.4686	1016.8	43.8225	1.08609	0	-0.308204	0	-12.2446	0	0	0	0	-0.000834702	0	0.000126697	0	0	0
